<?xml version="1.0" encoding="UTF-8" standalone="no"?>
<!DOCTYPE svg PUBLIC "-//W3C//DTD SVG 1.1//EN"
 "http://www.w3.org/Graphics/SVG/1.1/DTD/svg11.dtd">
<!-- Generated by graphviz version 2.40.1 (20161225.0304)
 -->
<!-- Title: G Pages: 1 -->
<svg width="294pt" height="387pt"
 viewBox="0.00 0.00 294.00 387.00" xmlns="http://www.w3.org/2000/svg" xmlns:xlink="http://www.w3.org/1999/xlink">
<g id="graph0" class="graph" transform="scale(1 1) rotate(0) translate(4 383)">
<title>G</title>
<polygon fill="#ffffff" stroke="transparent" points="-4,4 -4,-383 290,-383 290,4 -4,4"/>
<!-- 139984902967248 -->
<g id="node1" class="node">
<title>139984902967248</title>
<polygon fill="none" stroke="#000000" points="0,-332.5 0,-378.5 286,-378.5 286,-332.5 0,-332.5"/>
<text text-anchor="middle" x="66" y="-351.8" font-family="Times,serif" font-size="14.00" fill="#000000">input_1: InputLayer</text>
<polyline fill="none" stroke="#000000" points="132,-332.5 132,-378.5 "/>
<text text-anchor="middle" x="161" y="-363.3" font-family="Times,serif" font-size="14.00" fill="#000000">input:</text>
<polyline fill="none" stroke="#000000" points="132,-355.5 190,-355.5 "/>
<text text-anchor="middle" x="161" y="-340.3" font-family="Times,serif" font-size="14.00" fill="#000000">output:</text>
<polyline fill="none" stroke="#000000" points="190,-332.5 190,-378.5 "/>
<text text-anchor="middle" x="238" y="-363.3" font-family="Times,serif" font-size="14.00" fill="#000000">[(?, 28, 28, 1)]</text>
<polyline fill="none" stroke="#000000" points="190,-355.5 286,-355.5 "/>
<text text-anchor="middle" x="238" y="-340.3" font-family="Times,serif" font-size="14.00" fill="#000000">[(?, 28, 28, 1)]</text>
</g>
<!-- 139984902756752 -->
<g id="node2" class="node">
<title>139984902756752</title>
<polygon fill="none" stroke="#000000" points="19,-249.5 19,-295.5 267,-295.5 267,-249.5 19,-249.5"/>
<text text-anchor="middle" x="70.5" y="-268.8" font-family="Times,serif" font-size="14.00" fill="#000000">flatten: Flatten</text>
<polyline fill="none" stroke="#000000" points="122,-249.5 122,-295.5 "/>
<text text-anchor="middle" x="151" y="-280.3" font-family="Times,serif" font-size="14.00" fill="#000000">input:</text>
<polyline fill="none" stroke="#000000" points="122,-272.5 180,-272.5 "/>
<text text-anchor="middle" x="151" y="-257.3" font-family="Times,serif" font-size="14.00" fill="#000000">output:</text>
<polyline fill="none" stroke="#000000" points="180,-249.5 180,-295.5 "/>
<text text-anchor="middle" x="223.5" y="-280.3" font-family="Times,serif" font-size="14.00" fill="#000000">(?, 28, 28, 1)</text>
<polyline fill="none" stroke="#000000" points="180,-272.5 267,-272.5 "/>
<text text-anchor="middle" x="223.5" y="-257.3" font-family="Times,serif" font-size="14.00" fill="#000000">(?, 784)</text>
</g>
<!-- 139984902967248&#45;&gt;139984902756752 -->
<g id="edge1" class="edge">
<title>139984902967248&#45;&gt;139984902756752</title>
<path fill="none" stroke="#000000" d="M143,-332.3799C143,-324.1745 143,-314.7679 143,-305.8786"/>
<polygon fill="#000000" stroke="#000000" points="146.5001,-305.784 143,-295.784 139.5001,-305.784 146.5001,-305.784"/>
</g>
<!-- 139985942513104 -->
<g id="node3" class="node">
<title>139985942513104</title>
<polygon fill="none" stroke="#000000" points="38.5,-166.5 38.5,-212.5 247.5,-212.5 247.5,-166.5 38.5,-166.5"/>
<text text-anchor="middle" x="84" y="-185.8" font-family="Times,serif" font-size="14.00" fill="#000000">dense: Dense</text>
<polyline fill="none" stroke="#000000" points="129.5,-166.5 129.5,-212.5 "/>
<text text-anchor="middle" x="158.5" y="-197.3" font-family="Times,serif" font-size="14.00" fill="#000000">input:</text>
<polyline fill="none" stroke="#000000" points="129.5,-189.5 187.5,-189.5 "/>
<text text-anchor="middle" x="158.5" y="-174.3" font-family="Times,serif" font-size="14.00" fill="#000000">output:</text>
<polyline fill="none" stroke="#000000" points="187.5,-166.5 187.5,-212.5 "/>
<text text-anchor="middle" x="217.5" y="-197.3" font-family="Times,serif" font-size="14.00" fill="#000000">(?, 784)</text>
<polyline fill="none" stroke="#000000" points="187.5,-189.5 247.5,-189.5 "/>
<text text-anchor="middle" x="217.5" y="-174.3" font-family="Times,serif" font-size="14.00" fill="#000000">(?, 20)</text>
</g>
<!-- 139984902756752&#45;&gt;139985942513104 -->
<g id="edge2" class="edge">
<title>139984902756752&#45;&gt;139985942513104</title>
<path fill="none" stroke="#000000" d="M143,-249.3799C143,-241.1745 143,-231.7679 143,-222.8786"/>
<polygon fill="#000000" stroke="#000000" points="146.5001,-222.784 143,-212.784 139.5001,-222.784 146.5001,-222.784"/>
</g>
<!-- 139984903497616 -->
<g id="node4" class="node">
<title>139984903497616</title>
<polygon fill="none" stroke="#000000" points="32,-83.5 32,-129.5 254,-129.5 254,-83.5 32,-83.5"/>
<text text-anchor="middle" x="84" y="-102.8" font-family="Times,serif" font-size="14.00" fill="#000000">dense_1: Dense</text>
<polyline fill="none" stroke="#000000" points="136,-83.5 136,-129.5 "/>
<text text-anchor="middle" x="165" y="-114.3" font-family="Times,serif" font-size="14.00" fill="#000000">input:</text>
<polyline fill="none" stroke="#000000" points="136,-106.5 194,-106.5 "/>
<text text-anchor="middle" x="165" y="-91.3" font-family="Times,serif" font-size="14.00" fill="#000000">output:</text>
<polyline fill="none" stroke="#000000" points="194,-83.5 194,-129.5 "/>
<text text-anchor="middle" x="224" y="-114.3" font-family="Times,serif" font-size="14.00" fill="#000000">(?, 20)</text>
<polyline fill="none" stroke="#000000" points="194,-106.5 254,-106.5 "/>
<text text-anchor="middle" x="224" y="-91.3" font-family="Times,serif" font-size="14.00" fill="#000000">(?, 784)</text>
</g>
<!-- 139985942513104&#45;&gt;139984903497616 -->
<g id="edge3" class="edge">
<title>139985942513104&#45;&gt;139984903497616</title>
<path fill="none" stroke="#000000" d="M143,-166.3799C143,-158.1745 143,-148.7679 143,-139.8786"/>
<polygon fill="#000000" stroke="#000000" points="146.5001,-139.784 143,-129.784 139.5001,-139.784 146.5001,-139.784"/>
</g>
<!-- 139984862595408 -->
<g id="node5" class="node">
<title>139984862595408</title>
<polygon fill="none" stroke="#000000" points="12.5,-.5 12.5,-46.5 273.5,-46.5 273.5,-.5 12.5,-.5"/>
<text text-anchor="middle" x="70.5" y="-19.8" font-family="Times,serif" font-size="14.00" fill="#000000">reshape: Reshape</text>
<polyline fill="none" stroke="#000000" points="128.5,-.5 128.5,-46.5 "/>
<text text-anchor="middle" x="157.5" y="-31.3" font-family="Times,serif" font-size="14.00" fill="#000000">input:</text>
<polyline fill="none" stroke="#000000" points="128.5,-23.5 186.5,-23.5 "/>
<text text-anchor="middle" x="157.5" y="-8.3" font-family="Times,serif" font-size="14.00" fill="#000000">output:</text>
<polyline fill="none" stroke="#000000" points="186.5,-.5 186.5,-46.5 "/>
<text text-anchor="middle" x="230" y="-31.3" font-family="Times,serif" font-size="14.00" fill="#000000">(?, 784)</text>
<polyline fill="none" stroke="#000000" points="186.5,-23.5 273.5,-23.5 "/>
<text text-anchor="middle" x="230" y="-8.3" font-family="Times,serif" font-size="14.00" fill="#000000">(?, 28, 28, 1)</text>
</g>
<!-- 139984903497616&#45;&gt;139984862595408 -->
<g id="edge4" class="edge">
<title>139984903497616&#45;&gt;139984862595408</title>
<path fill="none" stroke="#000000" d="M143,-83.3799C143,-75.1745 143,-65.7679 143,-56.8786"/>
<polygon fill="#000000" stroke="#000000" points="146.5001,-56.784 143,-46.784 139.5001,-56.784 146.5001,-56.784"/>
</g>
</g>
</svg>
